# xmcd CD database file
#
# Track frame offsets:
#	150
#	13498
#	26706
#	40470
#	55540
#	69607
#	83604
#	97586
#	111214
#	152101
#	166076
#	180784
#	195822
#	241843
#	253523
#	267461
#	280207
#	293589
#	308252
#	322958
#	336764
#
# Disc length: 4691 seconds
#
# Revision: 0
# Processed by: cddbd v1.4PL0 Copyright (c) Steve Scherf et al.
# Submitted via: CDex 1.51
#
DISCID=06125115
DTITLE=Coleman Hawkins - Picasso
DYEAR=1900
DGENRE=Jazz
TTITLE0=April In Paris
TTITLE1=Rifftide
TTITLE2=Stuffy
TTITLE3=What Is There To Say?
TTITLE4=Wrap Your Troubles In Dreams
TTITLE5=Bean Soup
TTITLE6=It's The Talk Of The Town
TTITLE7=Say It Isn't So
TTITLE8=I Can't Get Started
TTITLE9=CockTails For Two
TTITLE10=Sweet Lorraine
TTITLE11=Nat Meet June
TTITLE12=How High The Moon
TTITLE13=Bean-A-Re-Bop
TTITLE14=Isn't It Romantic
TTITLE15=The Way We Look Tonight
TTITLE16=Phantomesque
TTITLE17=Angel Face
TTITLE18=Picasso
TTITLE19=It's Only A Paper Moon
TTITLE20=Bah-U-Bah
EXTD=
EXTT0=
EXTT1=
EXTT2=
EXTT3=
EXTT4=
EXTT5=
EXTT6=
EXTT7=
EXTT8=
EXTT9=
EXTT10=
EXTT11=
EXTT12=
EXTT13=
EXTT14=
EXTT15=
EXTT16=
EXTT17=
EXTT18=
EXTT19=
EXTT20=
PLAYORDER=
